<?xml version="1.0" standalone="no"?>
<!DOCTYPE svg PUBLIC "-//W3C//DTD SVG 20010904//EN"
 "http://www.w3.org/TR/2001/REC-SVG-20010904/DTD/svg10.dtd">
<svg version="1.0" xmlns="http://www.w3.org/2000/svg"
 width="600.000000pt" height="400.000000pt" viewBox="0 0 600.000000 400.000000"
 preserveAspectRatio="xMidYMid meet">

<g transform="translate(0.000000,400.000000) scale(0.100000,-0.100000)"
fill="#000000" stroke="none">
<path d="M2460 2931 l-535 -309 -3 -604 c-1 -332 0 -612 2 -623 4 -13 44 -43
114 -83 60 -34 112 -62 115 -62 3 0 48 25 99 55 l93 54 5 -114 5 -115 70 -41
c39 -22 88 -51 111 -64 l40 -24 93 55 c51 30 95 54 97 54 2 0 5 -50 6 -112 l3
-111 113 -65 112 -65 113 65 112 65 3 111 c1 62 4 112 6 112 2 0 46 -25 97
-55 l93 -54 31 18 c16 10 67 40 112 65 l82 47 3 114 3 114 93 -54 c51 -30 96
-55 99 -55 3 0 55 28 115 62 70 40 110 70 114 83 2 11 3 291 2 623 l-3 603
-535 310 c-294 170 -537 309 -540 309 -3 0 -246 -139 -540 -309z m1055 -22
c277 -161 503 -295 500 -299 -2 -4 -41 -28 -85 -54 l-81 -47 -425 245 -424
245 -425 -245 -425 -245 -85 48 c-47 26 -84 51 -82 55 3 11 999 587 1014 587
7 1 240 -130 518 -290z m165 -341 l145 -83 3 -593 c1 -354 -2 -592 -7 -590 -5
1 -45 23 -90 48 l-81 45 0 491 0 491 -312 181 -313 180 -3 105 -3 106 258
-148 c142 -82 323 -187 403 -233z m-371 -32 l293 -169 -84 -48 c-45 -27 -88
-49 -93 -49 -6 0 -104 54 -218 120 l-207 120 -200 -116 c-111 -64 -209 -118
-219 -121 -18 -4 -185 87 -175 96 19 19 582 339 594 338 9 -1 147 -78 309
-171z m-1234 -23 l50 -29 3 -593 c1 -326 -2 -591 -6 -589 -5 1 -43 23 -85 47
l-77 45 0 594 0 594 33 -20 c17 -11 55 -33 82 -49z m1183 -190 l152 -88 0
-593 0 -593 -22 12 c-13 6 -53 29 -90 51 l-68 39 0 489 0 489 -105 61 -105 62
0 104 0 105 43 -25 c23 -15 111 -65 195 -113z m-782 -40 l83 -48 1 -593 c0
-326 -3 -591 -7 -589 -5 2 -45 26 -90 52 l-83 47 0 589 c0 324 3 589 6 589 4
0 44 -21 90 -47z m613 -110 c44 -26 78 -50 75 -54 -2 -4 -40 -28 -84 -54 l-81
-46 -84 48 c-47 26 -85 50 -85 53 0 8 152 98 167 99 6 1 48 -20 92 -46z m-111
-771 c1 -326 -1 -592 -5 -592 -5 1 -44 22 -88 49 l-80 48 0 116 c0 65 1 331 3
592 l2 474 83 -48 82 -47 3 -592z"/>
</g>
</svg>
